<svg width="56" height="56" viewBox="0 0 56 56" fill="none" xmlns="http://www.w3.org/2000/svg">
<path d="M28 56C43.464 56 56 43.464 56 28C56 12.536 43.464 0 28 0C12.536 0 0 12.536 0 28C0 43.464 12.536 56 28 56Z" fill="#F6F7FB"/>
<path d="M32.5555 18.4543L34.2911 17.7601C34.2911 17.7601 33.5679 15.3882 35.4192 15.5039C37.2704 15.6196 38.0514 16.5163 38.0514 17.3551C38.0514 18.2229 36.2291 18.4543 36.2291 18.4543L32.9316 19.322L36.4605 20.4212C36.8365 20.5369 37.039 20.9419 36.8944 21.3179C36.7787 21.665 36.4027 21.8386 36.0555 21.7518L33.3944 21.0286C33.4522 20.9997 31.8035 19.9873 32.5555 18.4543Z" fill="#343758"/>
<path d="M23.4441 18.4543L21.7086 17.7601C21.7086 17.7601 22.4317 15.3882 20.5805 15.5039C18.7292 15.6196 17.9482 16.5163 17.9482 17.3551C17.9482 18.2229 19.7706 18.4543 19.7706 18.4543L23.0681 19.322L19.5392 20.4212C19.1631 20.5369 18.9606 20.9419 19.1053 21.3179C19.221 21.665 19.597 21.8386 19.9441 21.7518L22.6053 21.0286C22.5474 20.9997 24.2251 19.9873 23.4441 18.4543Z" fill="#343758"/>
<path d="M30.473 33.0906H25.5557V39.541C25.5557 40.9005 26.6548 41.9997 28.0143 41.9997C29.3738 41.9997 30.473 40.9005 30.473 39.541V33.0906Z" fill="#343758"/>
<path d="M28.0143 30.5449C26.6548 30.5449 25.5557 31.7309 25.5557 33.0615C25.5557 33.0615 25.5557 35.2019 28.0143 35.2019C30.473 35.2019 30.473 33.0615 30.473 33.0615C30.473 31.7309 29.3738 30.5449 28.0143 30.5449Z" fill="#343758"/>
<path d="M33.5681 23.4295C33.5681 23.4295 34.9854 21.8097 34.2333 20.508C33.4813 19.2064 32.44 18.165 32.3821 17.6733C32.3532 17.1816 33.2209 16.1692 32.6424 15.5328C32.0639 14.8964 30.1259 13.9998 28.0143 13.9998C25.9028 13.9998 23.9647 14.9254 23.3862 15.5328C22.8077 16.1692 23.6755 17.1526 23.6466 17.6733C23.6176 18.165 22.5474 19.2064 21.7953 20.508C21.0433 21.8097 22.4606 23.4295 22.4606 23.4295C20.2333 24.4419 21.5061 28.7807 21.5061 28.7807C21.5061 32.8593 23.2416 35.2312 24.4276 36.4171V32.8303C24.4276 30.8634 26.0185 29.2725 27.9854 29.2725C29.9523 29.2725 31.5433 30.8634 31.5433 32.8303V36.446C32.7292 35.289 34.4937 32.8882 34.4937 28.8097C34.5226 28.7807 35.7664 24.4419 33.5681 23.4295Z" fill="#343758"/>
<path d="M31.5142 20.0161C30.6175 20.3632 28.9398 20.9706 28.0142 20.9706C27.0886 20.9706 25.4109 20.3632 24.5142 20.0161C24.2249 19.9004 23.9067 20.1318 23.9067 20.45C23.9935 21.8673 24.3696 23.1111 25.0348 23.7764C25.7869 24.5285 28.0142 24.8467 28.0142 24.8467C28.0142 24.8467 30.2414 24.5285 30.9935 23.7764C31.6299 23.14 32.0348 21.8673 32.1216 20.45C32.1216 20.1318 31.8034 19.8715 31.5142 20.0161Z" fill="white"/>
</svg>
